<?xml version="1.0" encoding="utf-8"?>
<!-- Generator: Adobe Illustrator 24.1.0, SVG Export Plug-In . SVG Version: 6.00 Build 0)  -->
<svg version="1.1" id="Layer_1" xmlns="http://www.w3.org/2000/svg" xmlns:xlink="http://www.w3.org/1999/xlink" x="0px" y="0px"
	 viewBox="0 0 1875.6 2000" style="enable-background:new 0 0 1875.6 2000;" xml:space="preserve">
<style type="text/css">
	.st0{fill:#7A5734;}
	.st1{fill:#DEC7B2;}
	.st2{fill:#E8D4C1;}
	.st3{fill:#BA9C7E;}
	.st4{fill:#EBDBCD;}
	.st5{fill:#4C7378;}
	.st6{fill:#57848A;}
	.st7{fill:#689399;}
	.st8{fill:#7A5B3C;}
	.st9{fill:#A67C52;}
	.st10{fill:#676BC4;}
	.st11{fill:#4A52BD;}
	.st12{fill:#2F37A8;}
	.st13{fill:#868AE0;}
	.st14{fill:#AB534D;}
	.st15{fill:#FCB58A;}
	.st16{fill:#110580;}
	.st17{fill:#001D80;}
	.st18{fill:#FCFAF8;}
	.st19{fill:#FF8A91;}
	.st20{fill:#FFADB2;}
	.st21{fill:#FFFFFF;}
	.st22{fill:#C7645D;}
	.st23{fill:#F0A173;}
	.st24{fill:none;}
	.st25{fill:#E3996D;}
	.st26{fill:#D4BFA9;}
	.st27{fill:#E0E0E0;}
	.st28{fill:#C5C6E3;}
	.st29{fill:#E8E9FF;}
	.st30{fill:#FF5856;}
	.st31{fill:#1F6771;}
	.st32{fill:#6B4D3A;}
	.st33{fill:#8A634B;}
</style>
<g>
	<g>
		<path class="st0" d="M167.8,1514.6c0-0.2,0-0.4,0-0.4C167.8,1514.3,167.8,1514.6,167.8,1514.6L167.8,1514.6z"/>
		<g>
			<g>
				<path class="st1" d="M284.6,1160.3c-111.4,0-202.2-10.3-205.2-23.2L96,1331.5c0,92.3,85,167.6,188.8,167.6l0,0
					c103.9,0,188.8-75.5,188.8-167.6l16.6-194.7l0,0C487.6,1150,396.7,1160.3,284.6,1160.3z"/>
			</g>
			<path class="st2" d="M284.6,1160.3c-113.1,0-205-10.5-205.4-23.7v-0.2c0.9-13.1,92.5-23.7,205.4-23.7s204.3,10.5,205.4,23.7v0.2
				C489.6,1149.8,397.7,1160.3,284.6,1160.3z"/>
			<path class="st3" d="M284.6,1156.4c-95.5,0-172.9-9-173.1-20v-0.2c0.9-11,78.1-20,173.1-20c95.3,0,172.5,8.8,173.1,20v0.2
				C457.5,1147.4,380.1,1156.4,284.6,1156.4z"/>
			<path class="st4" d="M86.5,1220.5c13.1,0.4,26.2,5.4,37.4,16.3c21.1,20.4,34.2,51.8,51.2,75.7c6.5-12.9,12-26,17-39.6
				c6-16.1,27.7-31.2,44.7-18.1c18.1,14,31.6,29.9,43.4,49.7c10.1,17,18.3,37.2,34.2,49.9c15.3,12.3,32.5,15.9,38.7-6
				c5.6-19.1,3.7-39.8,9.7-58.9c5.2-15.9,13.3-32.7,29.7-39.6c19.4-8.4,38.1,1.9,55.3,10.8c10.3,5.2,20.4,10.8,30.3,16.6l-3.4,41.1
				c-17.6-11-39.1-24.5-57.2-27.1c-11.4-1.7-10.5,6-11.4,16.8c-0.6,9.7-0.6,19.4-1.1,28.8c-1.1,19.6-3.9,39.1-15.5,55.3
				c-24.7,34.8-71.2,33.1-103.9,11c-17.6-11.8-30.3-27.3-41.5-45.2c-3.7-5.8-7.1-11.8-10.8-17.9c-14,32.5-35.5,61.7-70.8,49.5
				c-21.9-7.7-36.1-31.6-49.3-49.5c-4.1-5.6-11.6-18.9-19.1-31L86.5,1220.5z"/>
		</g>
		<path class="st5" d="M5.8,495.9c4.3-16.6,23.9-19.1,35.5-9.5c21.9,18.3,33.3,43.7,45.4,68.8c12.5,26.5,28.2,50.5,46.2,73.6
			c36.8,46.9,77.6,90.6,104.7,144.3c52.3,104.1,64.7,226.9,28.8,338.3c-1.1,3.4,5.8-14.2-5.4,16.8c-10.1,28-49.9,12.9-49.5-19.6
			c0.4-31.8-8.2-61.5-22.4-89.9c-28-56.1-63-108.4-90.3-165.2c-27.5-57-51.8-115.7-71.4-175.7C8.4,619.4-9.6,557.4,5.8,495.9z"/>
		<path class="st6" d="M262.2,169c14-25.6,55.5-8.2,47.1,19.8c-24.1,82.4-6.9,169.7,8.2,252.1c15.3,84.1,32.9,167.8,43.4,252.5
			c18.5,150.8,12.5,320.1-83,445.9c-10.3,13.6-31.8,2.2-23.4-13.8c9.5-17.9-14.4-135.3-25-172.9c-10.8-38.7-21.5-77.6-31.2-116.6
			c-18.9-76.1-34.4-154-38.7-232.5C151.5,450.7,189.1,302.8,262.2,169z"/>
		<path class="st7" d="M307.6,1007c11.2-51.4,3-105.6,14-156.8c10.8-50.1,25.4-100.9,48.8-146.7c22.2-43.4,56.1-74.4,95.9-101.3
			c37.4-25.4,81.7-50.3,94.9-96.8c7.7-27.5,54.8-23.4,51.8,7.1c-6.2,62.2-32.5,117-63,170.8c-32.5,57.2-60.9,111.8-77,175.9
			c-27.3,109.9-51,252.5-176.4,286.3C281.4,1149.3,283.7,1116.7,307.6,1007z"/>
	</g>
	<polygon class="st2" points="1636.6,89.6 1630.4,83.8 1689.8,19.9 1736.2,84.2 1729.1,89.2 1688.9,33.5 	"/>
	<g>
		<path class="st8" d="M1426.3,1743.2L1426.3,1743.2c-17,4.5-35.5-7.1-43.7-27.5l-44.7-113.6c-9.9-25,0.2-52.3,21.1-57.6l27.7-7.3
			c20.9-5.6,43,13.3,46.9,39.8l17,120.9C1453.6,1719.3,1443.3,1738.7,1426.3,1743.2z"/>
		<path class="st8" d="M713.1,1743.2L713.1,1743.2c17,4.5,35.5-7.1,43.7-27.5l44.7-113.6c9.9-25-0.2-52.3-21.1-57.6l-27.7-7.3
			c-20.9-5.6-43,13.3-46.9,39.8l-17,120.9C685.5,1719.3,695.9,1738.7,713.1,1743.2z"/>
		<path class="st9" d="M1532.5,1854.2L1532.5,1854.2c-22.2,5.8-46.2-9.2-56.6-35.7l-58.1-147.6c-12.7-32.3,0.2-67.8,27.5-74.9
			l36.1-9.5c27.1-7.1,55.9,17.2,60.9,51.6l21.9,157C1568.3,1823.4,1554.7,1848.4,1532.5,1854.2z"/>
		<path class="st9" d="M606.6,1854.2L606.6,1854.2c22.2,5.8,46.2-9.2,56.6-35.7l58.1-147.6c12.7-32.3-0.2-67.8-27.5-74.9l-36.1-9.5
			c-27.1-7.1-55.9,17.2-60.9,51.6l-21.9,157C571.1,1823.4,584.4,1848.4,606.6,1854.2z"/>
		<path class="st10" d="M1602.9,1268.5H552.6c-63,0-114.4-51.4-114.4-114.4V719.4c0-63,51.4-114.4,114.4-114.4h1050.1
			c63,0,114.4,51.4,114.4,114.4v434.7C1717.3,1217.1,1665.7,1268.5,1602.9,1268.5z"/>
		<path class="st10" d="M1642,1054.3c-19.4,0.2-35.5,15.1-37.2,34.4c-7.1,74-28,242.4-73.6,326.3c-31.4,57.6-123.5,63-148,63.2
			H771.6c-24.5-0.4-116.6-5.6-148-63.2c-45.6-83.9-66.7-252.1-73.6-326.3c-1.9-19.4-17.9-34-37.2-34.4l-194.4-2.8
			c-22.2-0.2-40,18.3-38.5,40.7c6.5,92.3,31.8,319.2,130.3,465.2C463.8,1636.5,547,1661,567.9,1666c11.8,3.9,1015.9,1.5,1024-0.2
			c26.9-7.5,102.6-34.4,152.7-108.2c98.7-145.8,124.1-373,130.3-465.2c1.5-22.2-16.1-40.9-38.5-40.7L1642,1054.3z"/>
		<path class="st11" d="M771.3,1479.3h612.4c24.5-0.4,116.8-5.6,148.2-63.2c48.4-89,69-273.2,75.1-339.2c1.3-14-1.7-27.7-8.2-40
			l-40.4-76.4c-2.4-4.3-8.6-3.2-9.5,1.3c-11,54.6-51.8,249.9-73.3,264.1c-25,16.6-782.7,2.2-811.7,0c-24.7-1.7-50.5-202.6-57.6-262
			c-0.6-4.9-7.3-6.2-9.7-1.7l-39.1,74c-6.9,12.9-9.7,27.3-8.4,41.7c5.8,65.4,26.5,249.7,74.9,338.1
			C654.6,1473.7,746.8,1478.9,771.3,1479.3z"/>
		<path class="st12" d="M1443.1,1478.4h-747c-2.2,0-4.3,0-6.2-0.2c-75.1-2.8-123.7-74.9-96.1-139.4l34-79.6c3-6.9,9.7-24.5,9.7-24.5
			c29-64.7,75.1-80.9,139.4-80.9h586.1c64.3,0,123,33.1,140.7,84.1c0,0,5.4,14.4,8.4,21.3l34,79.6c27.5,64.5-21.1,136.6-96.1,139.4
			C1447.4,1478.4,1445.2,1478.4,1443.1,1478.4z"/>
		<path class="st13" d="M549.4,1077.3c-1.3-14.4,1.7-29,8.4-41.7l39.1-73.8l0,0l0,0c2.2-4.1,8.2-3.2,9.5,1.1l0,0
			c0,0-0.9-13.6-29-15.5H467.2c-19.1,0-37.9,5.6-54,15.9l-100.9,65.4c-21.3,13.8-33.8,38.1-32.5,63.5c-1.5-22.2,16.1-40.9,38.5-40.7
			l194.4,2.8c18.1,0.2,33.3,13.3,36.8,30.8l0.2,0.2l0,0C549.8,1082.7,549.6,1079.9,549.4,1077.3z"/>
		<path class="st13" d="M1606.8,1077.3c1.3-14.4-2.8-28.8-9.7-41.7l-39.1-73.6l0,0l0,0c-2.2-4.1-8.2-3.2-9.5,1.1l0,0
			c0,0,0.9-13.6,29-15.5h110.1c19.1,0,38.1,5.6,53.8,15.9l101.1,65.6c21.5,14,33.8,38.3,32.5,63.5c1.5-22.2-16.3-41.1-38.5-40.7
			l-194.7,2.8c-18.3,0.2-32.5,13.1-35.9,30.8C1606.1,1085.7,1606.5,1079.9,1606.8,1077.3z"/>
	</g>
	<path class="st14" d="M1574.5,1225.3c0,0,31.6,3.7,54.4,27.1c22.8,23.4,15.3,62.8,0,75.1c-26.5,21.1-77.4,21.1-115.7,21.1
		s-63.9-8.6-63.9-8.6l49-121.5C1498.3,1218.4,1529.1,1213,1574.5,1225.3z"/>
	<path class="st15" d="M1121.5,1593.5c-18.9,34.4-37.6,68.6-56.6,103c-12.7,23,4.7,54.2,26.9,63c26.7,10.8,50.3-3.9,63-26.9
		c18.9-34.4,37.6-68.6,56.6-103c12.7-23-4.7-54.2-26.9-63C1157.9,1555.9,1134.2,1570.5,1121.5,1593.5L1121.5,1593.5z"/>
	<path class="st16" d="M1298.1,505.4c0,0-41.7-133.4-55.9-189.5c-21.7-86.9-80.9-139.2-164.5-139.2c-84.7,0-144.3,53.1-167.8,139.6
		c-23.9,89-55.3,182-55.3,182c-3.7,11.8,2.2,24.5,13.6,29c26.9,10.8,83.2,29.7,209.3,28c112.5-1.5,170.8-17.4,200-20.4
		C1292.3,533.5,1302,519.4,1298.1,505.4z"/>
	<path class="st15" d="M1125.8,463.4h-96.1v166.3c0,12.5,10.1,22.6,22.6,22.6h51c12.5,0,22.6-10.1,22.6-22.6V463.4z"/>
	<path class="st17" d="M1012.7,235.2L1012.7,235.2L1012.7,235.2z"/>
	<circle class="st16" cx="1076.3" cy="103.8" r="60"/>
	<path class="st4" d="M1871.3,363.8h-391.9c-2.4,0-4.3-1.9-4.3-4.3V84.9c0-2.4,1.9-4.3,4.3-4.3h391.9c2.4,0,4.3,1.9,4.3,4.3v274.9
		C1875.6,361.9,1873.7,363.8,1871.3,363.8z"/>
	<path class="st18" d="M1819,322.3h-287.4c-1.9,0-3.2-1.5-3.2-3.2V125.5c0-1.9,1.5-3.2,3.2-3.2H1819c1.9,0,3.2,1.5,3.2,3.2v193.6
		C1822.3,320.8,1820.8,322.3,1819,322.3z"/>
	<path class="st19" d="M570,1156c0-75.9,74-128.6,151.4-148.2c157.9-40.2,435.1,12.3,435.1,12.3l-146.5,93.1
		c0,0,134.4,37.4,168,44.5c33.6,7.1,251.9,64.1,255.5,69.7c3.7,5.4-80.4,116.8-80.4,116.8s-409.3,4.7-535.1-11.6
		C692,1316,570,1285.5,570,1156z"/>
	<path class="st20" d="M991.6,1114.3c66.5,15.5,165.4,44.1,209.9,58.1c45.6,14.2,63,28,63,28s-82.8,72.7-119.4,216.6
		c-20.6,80.9-60,189.1-66.9,212.9c-1.1,3.7-0.2,7.5,2.4,10.3c8,8.6,26.5,27.3,46.2,38.1c24.1,13.3,68.2,28,72.7,21.5
		c0,0,192.5-188.4,267.6-296.6c75.1-108.2,144.3-195.9,114.6-271.2c-24.3-61.7-78.1-98.1-167.6-117c-136.8-28.6-296-17.4-296-17.4
		s-9.2,23.7-45.4,65.4C1042.8,1097.9,990.1,1114.1,991.6,1114.3z"/>
	<path class="st21" d="M934.8,466.2c-15.5,0-15.9-45-15.9-50.1s0.4-50.1,15.9-50.1c15.5,0,15.9,45,15.9,50.1
		S950.3,466.2,934.8,466.2z M934.8,374.6c-2.8,2.8-7.5,17.6-7.5,41.5c0,23.7,4.5,38.7,7.5,41.5c2.8-2.8,7.5-17.6,7.5-41.5
		C942.1,392.2,937.6,377.2,934.8,374.6z"/>
	<path class="st21" d="M1217.7,466.2c-15.5,0-15.9-45-15.9-50.1s0.4-50.1,15.9-50.1s15.9,45,15.9,50.1S1233.1,466.2,1217.7,466.2z
		 M1217.7,374.6c-2.8,2.8-7.5,17.6-7.5,41.5c0,23.7,4.5,38.7,7.5,41.5c2.8-2.8,7.5-17.6,7.5-41.5
		C1225,392.2,1220.5,377.2,1217.7,374.6z"/>
	<circle class="st15" cx="1077.8" cy="339.8" r="159.4"/>
	<path class="st16" d="M915.2,351.6c0.2,2.6,0.4,5.2,0.6,7.5c0,0.2,0,0.6,0.2,0.9c0.4,2.8,0.6,5.6,1.1,8.2v0.2
		c0.4,3,1.1,5.8,1.7,8.6c10.8-43.9,50.3-76.6,97.4-76.6c5.8,0,11.6,0.4,17.2,1.5c4.1,0.9,8.6,1.5,12.9,1.5
		c29.7,0,54.2-22.4,57.4-51.2c0,0,0.2,0,0.2-0.2c-0.4,3-0.9,6-0.9,9.2c0,34,27.5,61.3,61.3,61.3h0.2c33.1,6.7,59.6,31.2,69.3,63.2
		l0,0c1.9-7.1,3.7-14.4,4.7-21.7c0-0.2,0-0.6,0-0.9c0.4-3,0.9-6.2,1.1-9.5c0-0.9,0.2-1.5,0.2-2.4c0.2-3.4,0.4-7.1,0.4-10.5
		c0-3,0-6-0.2-8.8c0-0.9-0.2-1.7-0.2-2.6c-0.2-2.2-0.2-4.1-0.4-6.2c0-0.9-0.2-1.9-0.4-2.8c-0.2-1.9-0.4-3.9-0.9-5.8
		c-0.2-0.9-0.4-1.9-0.4-2.8c-0.4-1.9-0.6-3.9-1.1-5.8c-0.2-0.9-0.4-1.7-0.6-2.6c-0.4-1.9-1.1-4.1-1.5-6c-0.2-0.6-0.4-1.5-0.6-2.2
		c-0.6-2.2-1.3-4.3-1.9-6.5c-0.2-0.6-0.4-1.1-0.6-1.7c-0.9-2.4-1.7-4.7-2.6-6.9c-0.2-0.2-0.2-0.6-0.4-0.9c-1.1-2.6-2.2-5.2-3.4-7.7
		l0,0c-14-29.9-37-54.8-65.4-71.4l0,0c-9-5.2-18.5-9.7-28.4-13.1c-0.4-0.2-0.6-0.2-1.1-0.4c-2.8-1.1-5.8-1.9-8.6-2.8
		c-0.4-0.2-0.9-0.2-1.5-0.4c-6.5-1.7-12.9-3-19.6-4.1c-0.9-0.2-1.7-0.2-2.6-0.2c-2.6-0.2-4.9-0.6-7.5-0.9c-0.9,0-1.9-0.2-2.8-0.2
		c-3.2-0.2-6.7-0.4-10.1-0.4c-89.9,0-162.8,72.9-162.8,162.8c0,3,0,6,0.2,9C915.2,350.5,915.2,350.9,915.2,351.6z"/>
	<path class="st22" d="M1041.9,1717.6c-3.4,4.3-32.7,44.5-35.3,65.8c-1.9,14.8-10.8,41.9-16.8,78.1c-6,36.1-25,112.7,31.2,133.1
		c47.3,17.4,58.7-12,68.8-25.8c10.1-13.8,38.1-122.6,40.2-134.2c4.1-23.7,30.3-98.7,30.3-98.7c3-6.2,4.5-8.6-2.2-10.5
		c-12.5-3.7-31.6-10.3-45.6-16.8c-15.1-7.1-30.3-21.1-38.9-28c-3-2.6-4.7-4.3-6.9-0.9C1066.9,1679.8,1042.1,1717.4,1041.9,1717.6z"
		/>
	<path class="st15" d="M821.7,720c-49.5,44.1-88.8,99.2-92.7,167.3c-3.9,70.3,38.5,124.1,100,152.5c18.3,8.6,40.4,5.2,51.4-13.6
		c9.5-16.1,4.9-42.8-13.6-51.4C826,956,798,928.4,804.5,880.5c6-44.5,38.1-78.9,70.1-107.5C910.9,741.1,857.6,688,821.7,720
		L821.7,720z"/>
	<path class="st23" d="M1260.9,772.9c16.6,21.5,30.5,44.5,42.6,68.8c10.1,20.6,23.4,45,20.9,68.8c-5.4,49.3-59.8,76.1-98.3,97
		c-42.4,23-4.7,88,37.9,64.7c58.7-31.8,121.5-73.6,133.4-145c6-36.8-4.5-69.9-19.6-103.2c-14.2-31.6-30.8-61.7-52.1-89.3
		c-12.5-15.9-32.3-24.7-51.4-13.6C1258.5,730.8,1248.4,756.8,1260.9,772.9L1260.9,772.9z"/>
	<path class="st21" d="M1232.9,604.5c-40.9-21.5-86.9-32.3-107.1-35.5c-6.2,26.5-20,41.1-49.7,41.1c-30.3,0-40.7-15.3-46.5-42.4
		c-6.2,0.2-25,4.5-29.3,4.9c-53.3,4.7-90.1,26.5-117.4,45.6c-37.9,26.2-78.3,77.6-94.9,99.6c-4.7,6.2-4.5,14.8,0.4,20.9
		c9,10.8,24.3,27.5,39.8,37.9c27.5,18.3,73.3,18.3,73.3,18.3l6.9-63.2c0,0-11.6,68.8-14,114.4c-2.8,49.7,0,94.2,0,94.2l347.8,7.1
		c0,0,12.7-49.3,5.2-117.4c-1.9-17.6-21.1-93.1-21.1-93.1l16.1,50.1c0,0,24.3,0.9,65.8-17.4c12.7-5.6,30.3-19.1,40.7-27.3
		c4.7-3.7,5.6-10.5,1.9-15.3C1332.5,701.3,1274.4,626.2,1232.9,604.5z"/>
	<path class="st24" d="M1029.7,491.6v-28.2h96.1v28.2c61.3-19.4,106.7-75.1,110.8-141.7c-5.2-83.2-74.4-149.3-159-149.3
		c-84.5,0-153.8,66-159,149.3C923,416.5,968.4,472,1029.7,491.6z"/>
	<path class="st25" d="M1077.8,498.9c-16.8,0-32.9-2.6-48.2-7.5v29.7c15.3,4.7,31.8,4.9,48.8,3.4c22.6-2.2,32.3-6.5,47.5-12.9v-20.2
		C1110.8,496.3,1094.6,498.9,1077.8,498.9z"/>
	<g>
		<path class="st26" d="M1687.2,45.1c-1.1,0-2.4-0.4-3.2-1.5c-1.5-1.7-1.1-4.3,0.6-5.6l31.6-25.4c1.7-1.3,4.3-1.1,5.6,0.6
			c1.5,1.7,1.1,4.3-0.6,5.6l-31.6,25.4C1688.9,44.6,1688.1,45.1,1687.2,45.1z"/>
		
			<ellipse transform="matrix(0.8205 -0.5716 0.5716 0.8205 301.1974 986.6635)" class="st26" cx="1721.8" cy="13.7" rx="10.3" ry="15.1"/>
	</g>
	<path class="st21" d="M1075.7,1095.1c55.5,12.9,111.6,23,166.9,36.8c27.5,6.9,54.8,14.6,81.5,24.1c6.2,2.2,12.5,4.5,18.5,6.9
		c3,1.3,6.2,2.4,9.2,3.7c2.2,0.9,7.7,2.2,9.5,4.1c2.6,3.4-5.2,10.8-7.1,13.1c-4.7,5.6-9.2,11-13.8,16.6
		c-68.4,82.6-131,170.1-182.2,264.6c-28.4,52.5-52.9,106.9-72.9,163c-2.8,7.7,9.7,11.2,12.5,3.4c36.6-103.7,89.9-200.7,152.1-290.8
		c31.4-45.4,65-89.3,100.2-131.8c4.3-5.4,8.8-10.5,13.1-15.7c4.1-4.7,8.6-9.5,10.5-15.5c1.7-5.6,1.1-11.6-3.2-15.7
		c-4.3-4.3-11.4-6-16.8-8.2c-26.9-11-54.6-19.8-82.6-27.5c-63.2-17.4-128-28.6-191.9-43.4C1071,1080.9,1067.5,1093.2,1075.7,1095.1
		L1075.7,1095.1z"/>
	<path class="st27" d="M874.2,793.2c0,0,20.9-22.2,28.4-37.4c7.5-15.5,16.3-44.3,16.3-44.3s-6.5,42.4-10.3,60.7
		c-5.4,25.6-11.6,37.9-11.6,37.9l-20-1.1c0,0-0.9-3.7-1.3-7.5C875,797.5,874.2,793.2,874.2,793.2z"/>
	<path class="st27" d="M1260.9,800.9c0,0-18.1-24.3-23.9-40.4c-5.8-16.1-11.2-45.8-11.2-45.8s1.5,42.8,3.2,61.3
		c2.6,26,7.3,38.9,7.3,38.9l20,1.1c0,0,1.3-3.7,2.2-7.3C1259.6,805.2,1260.9,800.9,1260.9,800.9z"/>
	<path class="st28" d="M1279.2,1083.7H859.7c-14,0-26.2-9.9-29-23.9l-49.5-250.1c-3.7-18.3,10.3-35.3,29-35.3h534.9
		c19.4,0,33.6,18.3,28.6,37l-66,250.4C1304.3,1074.7,1292.5,1083.7,1279.2,1083.7z"/>
	<g>
		<path class="st29" d="M1120.7,937.9c-1.7,22.4-20.9,40.7-42.8,40.7s-41.1-18.1-43-40.4s17.4-40.7,42.8-40.7
			C1103.2,897.3,1122.4,915.5,1120.7,937.9z"/>
	</g>
	<g>
		<path class="st30" d="M1614.5,196.5c13.3-12.5,38.5-18.1,53.3-11s9.7,5.6,14.8,7.1c5.2,1.5,14.6-0.6,23.4,6.2
			c10.1,8,29,29.7,18.7,58.1c-8.8,24.1-37,44.7-71,38.9c-34-5.8-50.8-26-55.1-43.2C1593.6,232.4,1601.6,208.5,1614.5,196.5z"/>
		<path class="st31" d="M1685.7,200.6c0,0-1.1-33.8,20.2-41.5c21.3-7.7,55.7-18.3,54.2-16.1c-1.5,1.9-9.9,38.7-24.3,48.4
			C1714.1,206.2,1685.7,200.6,1685.7,200.6z"/>
		<path class="st32" d="M1663.3,205.1c0,0,3.2-16.3,3.9-26.2c1.3-20,0.9-29.9,0.9-29.9l17,2.8c0,0-2.4,23.4-4.3,32
			c-3.4,15.3-8.6,24.3-8.6,24.3s-3.2,2.6-6,1.1C1663.1,207.5,1663.3,205.1,1663.3,205.1z"/>
		
			<ellipse transform="matrix(0.1962 -0.9806 0.9806 0.1962 1200.418 1764.4426)" class="st33" cx="1676.4" cy="150" rx="4.3" ry="8.6"/>
	</g>
</g>
</svg>
